<svg xmlns="http://www.w3.org/2000/svg" viewBox="0 0 70 70" id="1768403284" class="svg u_1768403284" data-icon-name="wp-bullhorn"> <path d="M53,17c-0.4,0-0.8,0.1-1.1,0.2c0,0-38.6,12.7-39.2,12.8c-1.6,0.5-2.7,2.5-2.7,5s1.1,4.5,2.7,5c0.2,0.1,4.4,1.4,9.9,3.2
	l-0.4,1.1c-0.8,2.4,0.4,5,2.8,5.8l7.3,2.6c0.5,0.2,1,0.3,1.6,0.3c0.7,0,1.4-0.2,2-0.5c1.1-0.5,2-1.5,2.4-2.6l0.5-1.4
	c7.1,2.3,13.1,4.3,13.1,4.3c0.4,0.1,0.7,0.2,1.1,0.2c4.5,0,7-9.3,7-18S57.5,17,53,17z M36.4,49.3c-0.2,0.7-0.7,1.2-1.3,1.5
	c-0.6,0.3-1.3,0.3-2,0.1l-7.3-2.6c-1.3-0.5-2-2-1.6-3.3l0.4-1.1c3.9,1.3,8.3,2.7,12.4,4.1L36.4,49.3z M53,51c-2.1,0-5-6.1-5-16
	s2.9-16,5-16c2.1,0,5,6.1,5,16S55.1,51,53,51z" id="1459554540"></path> 
</svg>