<svg version="1.1" id="Layer_1" xmlns="http://www.w3.org/2000/svg" xmlns:xlink="http://www.w3.org/1999/xlink" x="0px" y="0px" width="66px" height="52.801px" viewBox="0 0 66 52.801" enable-background="new 0 0 66 52.801" xml:space="preserve"> <rect x="215" y="-380" fill="#FFFFFF" width="800" height="800"></rect> 
 <rect x="215" y="-380" fill="#414042" width="160" height="160"></rect> 
 <g> <path fill="#414042" d="M267,321.333h29.333c0.737,0,1.333-0.596,1.333-1.333v-5.333c0-0.737-0.596-1.334-1.333-1.334H267
		c-0.737,0-1.333,0.597-1.333,1.334V320C265.667,320.738,266.263,321.333,267,321.333z"></path> 
 <circle fill="#414042" cx="272.333" cy="357.334" r="1.333"></circle> 
 <path fill="#414042" d="M272.333,348c-5.146,0-9.333,4.188-9.333,9.333c0,5.146,4.188,9.334,9.333,9.334
		c5.146,0,9.333-4.188,9.333-9.334C281.667,352.188,277.479,348,272.333,348z M272.333,361.333c-2.206,0-4-1.794-4-4
		c0-2.205,1.794-4,4-4c2.206,0,4,1.795,4,4C276.333,359.54,274.539,361.333,272.333,361.333z"></path> 
 <circle fill="#414042" cx="296.333" cy="357.334" r="1.333"></circle> 
 <path fill="#414042" d="M296.333,348c-5.146,0-9.333,4.188-9.333,9.333c0,5.146,4.188,9.334,9.333,9.334
		c5.146,0,9.333-4.188,9.333-9.334C305.667,352.188,301.479,348,296.333,348z M296.333,361.333c-2.206,0-4-1.794-4-4
		c0-2.205,1.794-4,4-4c2.206,0,4,1.795,4,4C300.333,359.54,298.539,361.333,296.333,361.333z"></path> 
 <path fill="#414042" d="M331,364h-6.667v-20c0-0.737-0.597-1.333-1.333-1.333s-1.333,0.596-1.333,1.333v20H319v-49.333
		c0-0.737-0.596-1.334-1.333-1.334h-5.333c-0.737,0-1.333,0.597-1.333,1.334v25.841l-2.667,1.333v-0.508
		c0-0.736-0.597-1.333-1.333-1.333h-4v-1.333c0-0.183-0.037-0.359-0.108-0.526L296.831,324h-28.497v13.333h-6.667
		c-0.354,0-0.692,0.141-0.942,0.391l-2.667,2.667c-0.25,0.25-0.391,0.589-0.391,0.942v16c0,0.737,0.597,1.334,1.333,1.334h1.467
		c-0.049-0.443-0.134-0.878-0.134-1.334c0-6.617,5.383-12,12-12s12,5.383,12,12c0-6.617,5.383-12,12-12c1.406,0,2.745,0.269,4,0.717
		v0.617c0,0.736,0.596,1.333,1.333,1.333H307c0.737,0,1.333-0.597,1.333-1.333v-1.844L311,343.49v21.844
		c0,0.737,0.596,1.334,1.333,1.334h5.333H331c0.737,0,1.333-0.597,1.333-1.334C332.333,364.597,331.737,364,331,364z
		 M292.333,345.333h-10.667v-4c0-2.205-1.794-4-4-4h-1.333v-10.666h12.372l3.628,10.883V345.333z"></path> 
</g> 
 <g> <circle fill="#414042" cx="432.333" cy="357.334" r="1.333"></circle> 
 <path fill="#414042" d="M432.333,348c-5.146,0-9.333,4.188-9.333,9.333c0,5.146,4.188,9.334,9.333,9.334
		c5.146,0,9.333-4.188,9.333-9.334C441.667,352.188,437.479,348,432.333,348z M432.333,361.333c-2.206,0-4-1.794-4-4
		c0-2.205,1.794-4,4-4c2.206,0,4,1.795,4,4C436.333,359.54,434.539,361.333,432.333,361.333z"></path> 
 <circle fill="#414042" cx="456.333" cy="357.334" r="1.333"></circle> 
 <path fill="#414042" d="M456.333,348c-5.146,0-9.333,4.188-9.333,9.333c0,5.146,4.188,9.334,9.333,9.334
		c5.146,0,9.333-4.188,9.333-9.334C465.667,352.188,461.479,348,456.333,348z M456.333,361.333c-2.206,0-4-1.794-4-4
		c0-2.205,1.794-4,4-4c2.206,0,4,1.795,4,4C460.333,359.54,458.539,361.333,456.333,361.333z"></path> 
 <path fill="#414042" d="M491,356h-1.333v-6.667c0-0.736-0.596-1.333-1.333-1.333h-10.667c-0.737,0-1.333,0.597-1.333,1.333V356
		h-2.667v-25.333c0-0.737-0.596-1.334-1.333-1.334c-0.737,0-1.333,0.597-1.333,1.334v14.666h-2.667V344
		c0-0.737-0.597-1.333-1.333-1.333h-4V332c0-0.192-0.042-0.383-0.123-0.56l-8-17.334c-0.219-0.471-0.691-0.773-1.211-0.773h-24
		c-0.737,0-1.333,0.597-1.333,1.334v20H419c-0.737,0-1.333,0.596-1.333,1.333v21.333c0,0.737,0.597,1.334,1.333,1.334h1.467
		c-0.049-0.443-0.134-0.878-0.134-1.334c0-6.617,5.383-12,12-12s12,5.383,12,12c0-6.617,5.383-12,12-12
		c4.151,0,7.813,2.12,9.969,5.334H467c0.737,0,1.333-0.597,1.333-1.334V348H471v9.333c0,0.737,0.596,1.334,1.333,1.334h5.333h10.667
		H491c0.737,0,1.333-0.597,1.333-1.334C492.333,356.597,491.737,356,491,356z M460.333,333.763l-4.818-2.606l1.859-2.323
		c0.459-0.575,0.366-1.414-0.208-1.875c-0.575-0.458-1.413-0.364-1.875,0.209l-5.333,6.666c-0.46,0.576-0.366,1.414,0.208,1.875
		c0.246,0.198,0.541,0.292,0.832,0.292c0.392,0,0.779-0.172,1.043-0.5l1.781-2.227l6.511,3.521v5.873h-20V340H443
		c2.206,0,4-1.794,4-4s-1.794-4-4-4h-1.333v-6.667c0-2.205-1.794-4-4-4c-2.206,0-4,1.795-4,4v8v0.053v5.281
		c0,0.736,0.597,1.333,1.333,1.333h2.667v2.667H431V336v-20h21.814l7.52,16.294V333.763z"></path> 
</g> 
 <g> <path fill="#414042" d="M589.667,326.667h32c0.736,0,1.333-0.597,1.333-1.334V320c0-0.737-0.597-1.333-1.333-1.333h-32
		c-0.737,0-1.333,0.596-1.333,1.333v5.333C588.333,326.071,588.93,326.667,589.667,326.667z"></path> 
 <path fill="#414042" d="M616.333,353.333c-5.146,0-9.333,4.188-9.333,9.334c0,5.146,4.188,9.333,9.333,9.333
		c5.146,0,9.334-4.188,9.334-9.333C625.667,357.521,621.479,353.333,616.333,353.333z M616.333,366.667c-2.206,0-4-1.795-4-4
		c0-2.206,1.794-4,4-4c2.206,0,4,1.794,4,4C620.333,364.873,618.539,366.667,616.333,366.667z"></path> 
 <circle fill="#414042" cx="616.333" cy="362.667" r="1.333"></circle> 
 <circle fill="#414042" cx="587" cy="362.667" r="1.333"></circle> 
 <path fill="#414042" d="M587,353.333c-5.146,0-9.333,4.188-9.333,9.334c0,5.146,4.188,9.333,9.333,9.333s9.333-4.188,9.333-9.333
		C596.333,357.521,592.146,353.333,587,353.333z M587,366.667c-2.206,0-4-1.795-4-4c0-2.206,1.794-4,4-4s4,1.794,4,4
		C591,364.873,589.206,366.667,587,366.667z"></path> 
 <rect x="583" y="337.333" fill="#414042" width="2.667" height="8"></rect> 
 <path fill="#414042" d="M656.656,310.707l-10.667-2.667c-0.055-0.013-0.109,0.011-0.166,0.005c-0.148-0.018-0.292-0.023-0.44,0.008
		c-0.086,0.019-0.156,0.055-0.237,0.092c-0.072,0.031-0.153,0.036-0.219,0.08l-19.26,12.842v4.268c0,1.737-1.117,3.203-2.667,3.756
		v8.244h2.667v-5.919l21.557-13.188L654.481,340H651c-0.206,0-0.411,0.05-0.597,0.141l-5.052,2.526h-7.685
		c-0.492,0-0.943,0.271-1.175,0.705c-0.234,0.433-0.208,0.959,0.065,1.367l5.333,8c0.247,0.37,0.664,0.594,1.109,0.594h10.667
		c0.611,0,1.146-0.416,1.294-1.01l2.667-10.667c0.01-0.039-0.006-0.078,0.002-0.117c0.011-0.07,0.037-0.133,0.037-0.206V312
		C657.667,311.388,657.25,310.855,656.656,310.707z"></path> 
 <path fill="#414042" d="M583,331.219v3.448h2.667v-4c0-0.354-0.141-0.693-0.391-0.943l-2.667-2.666
		c-0.521-0.521-1.365-0.521-1.885,0c-0.521,0.521-0.521,1.364,0,1.885L583,331.219z"></path> 
 <path fill="#414042" d="M629.667,340h-9.334v-10.667H591V340h-2.667v6.667c0,0.736-0.597,1.333-1.333,1.333h-5.333
		c-0.737,0-1.333-0.597-1.333-1.333V340h-4c-0.505,0-0.966,0.284-1.193,0.737l-2.667,5.333c-0.091,0.185-0.141,0.391-0.141,0.597
		V360c0,0.737,0.596,1.333,1.333,1.333h1.468c0.674-5.984,5.706-10.666,11.866-10.666s11.191,4.682,11.866,10.666h5.602
		c0.675-5.984,5.706-10.666,11.866-10.666c6.162,0,11.193,4.682,11.865,10.666h4.135c0.386,0,0.756-0.166,1.008-0.461
		c0.253-0.289,0.367-0.677,0.313-1.06l-2.666-18.667C630.894,340.49,630.331,340,629.667,340z M612.333,345.333h-8v-4
		c0-0.736-0.597-1.333-1.333-1.333h-4v-8h13.333V345.333z"></path> 
</g> 
 <g> <circle fill="#414042" cx="787" cy="357.334" r="1.333"></circle> 
 <path fill="#414042" d="M787,348c-5.146,0-9.333,4.188-9.333,9.333c0,5.146,4.188,9.334,9.333,9.334s9.333-4.188,9.333-9.334
		C796.333,352.188,792.146,348,787,348z M787,361.333c-2.206,0-4-1.794-4-4c0-2.205,1.794-4,4-4s4,1.795,4,4
		C791,359.54,789.206,361.333,787,361.333z"></path> 
 <circle fill="#414042" cx="755" cy="357.334" r="1.333"></circle> 
 <path fill="#414042" d="M755,348c-5.146,0-9.333,4.188-9.333,9.333c0,5.146,4.188,9.334,9.333,9.334s9.333-4.188,9.333-9.334
		C764.333,352.188,760.146,348,755,348z M755,361.333c-2.206,0-4-1.794-4-4c0-2.205,1.794-4,4-4s4,1.795,4,4
		C759,359.54,757.206,361.333,755,361.333z"></path> 
 <path fill="#414042" d="M811,334.667h-2.667v-5.334H811c0.464,0,0.891-0.239,1.136-0.633c0.242-0.393,0.263-0.885,0.057-1.299
		l-2.341-4.667c-1.396,2.341-3.93,3.933-6.852,3.933c-0.3,0-0.583-0.058-0.875-0.089l1.016,2.021
		c0.227,0.451,0.688,0.734,1.192,0.734h1.334v5.334H803c-0.737,0-1.333,0.596-1.333,1.333s0.596,1.333,1.333,1.333h2.667v4.508
		l-1.93,0.967c-0.659,0.33-0.925,1.13-0.597,1.789c0.234,0.466,0.706,0.736,1.192,0.736c0.201,0,0.404-0.047,0.597-0.141
		l0.737-0.369v2.352l-1.93,0.966c-0.659,0.331-0.925,1.13-0.597,1.789c0.234,0.466,0.706,0.737,1.192,0.737
		c0.201,0,0.404-0.047,0.597-0.141l0.737-0.37v2.352l-1.93,0.966c-0.659,0.331-0.925,1.131-0.597,1.789
		c0.234,0.467,0.706,0.737,1.192,0.737c0.201,0,0.404-0.047,0.597-0.141l0.737-0.37v2.352l-1.93,0.967
		c-0.659,0.33-0.925,1.13-0.597,1.789c0.234,0.466,0.706,0.736,1.192,0.736c0.201,0,0.404-0.047,0.597-0.141l0.737-0.369v1.844
		c0,0.736,0.596,1.333,1.333,1.333s1.333-0.597,1.333-1.333v-3.178l1.93-0.963c0.659-0.331,0.925-1.131,0.597-1.789
		c-0.331-0.659-1.128-0.922-1.789-0.597l-0.737,0.367v-2.352l1.93-0.964c0.659-0.33,0.925-1.13,0.597-1.789
		c-0.331-0.661-1.128-0.922-1.789-0.596l-0.737,0.367v-2.352l1.93-0.964c0.659-0.331,0.925-1.13,0.597-1.789
		c-0.331-0.661-1.128-0.925-1.789-0.597l-0.737,0.367v-2.352l1.93-0.963c0.659-0.331,0.925-1.131,0.597-1.789
		c-0.331-0.659-1.128-0.922-1.789-0.597l-0.737,0.367v-3.175H811c0.737,0,1.333-0.596,1.333-1.333S811.737,334.667,811,334.667z"></path> 
 <path fill="#414042" d="M743,314.667V320c0,0.737,0.597,1.333,1.333,1.333h1.842l-5.701,11.404
		c-0.016,0.033-0.008,0.072-0.023,0.106c-0.01,0.026-0.039,0.039-0.049,0.067l-2.667,8c-0.044,0.139-0.067,0.279-0.067,0.422v16
		c0,0.737,0.596,1.334,1.333,1.334h4.136c-0.05-0.443-0.136-0.878-0.136-1.334c0-6.617,5.383-12,12-12s12,5.383,12,12
		c0,0.456-0.086,0.891-0.136,1.334h8.271c-0.05-0.443-0.136-0.878-0.136-1.334c0-6.617,5.383-12,12-12
		c0.677,0,1.331,0.092,1.977,0.201L785.081,324h-28.748v8h-7.174l5.333-10.667h41c-0.3-0.838-0.492-1.727-0.492-2.666
		c0-2.058,0.802-3.914,2.081-5.334h-52.748C743.597,313.333,743,313.93,743,314.667z M764.333,326.667h13.589l3.43,16h-11.685v-4
		c0-0.737-0.597-1.334-1.334-1.334h-4V326.667z M746.177,332h-2.354l5.333-10.667h2.354L746.177,332z"></path> 
 <path fill="#414042" d="M808.333,318.667c0-2.94-2.393-5.334-5.333-5.334s-5.333,2.394-5.333,5.334
		c0,2.942,2.393,5.333,5.333,5.333S808.333,321.61,808.333,318.667z"></path> 
</g> 
 <g> <circle fill="#414042" cx="947" cy="368" r="1.333"></circle> 
 <circle fill="#414042" cx="920.333" cy="368" r="1.333"></circle> 
 <circle fill="#414042" cx="933.667" cy="368" r="1.333"></circle> 
 <circle fill="#414042" cx="907" cy="368" r="1.333"></circle> 
 <path fill="#414042" d="M960.333,358.667H951V356h1.333c0.737,0,1.334-0.597,1.334-1.333v-8c0-0.445-0.225-0.862-0.594-1.109
		l-8-5.334c-0.219-0.146-0.477-0.224-0.74-0.224h-6.666v13.333H935v-12c0-0.143-0.023-0.283-0.067-0.422L931,329.115v0.219h-28
		v25.334c0,0.736,0.597,1.333,1.333,1.333h4v2.667H907c-5.146,0-9.333,4.188-9.333,9.333s4.188,9.333,9.333,9.333h53.333
		c5.146,0,9.334-4.188,9.334-9.333S965.479,358.667,960.333,358.667z M911,332h13.625l2.375,9.497V348h-10.667v-6.667
		c0-0.505-0.286-0.966-0.736-1.192l-4.597-2.3V332z M907,372c-2.206,0-4-1.794-4-4s1.794-4,4-4s4,1.794,4,4S909.206,372,907,372z
		 M920.333,372c-2.205,0-4-1.794-4-4s1.795-4,4-4c2.206,0,4,1.794,4,4S922.539,372,920.333,372z M933.667,372c-2.206,0-4-1.794-4-4
		s1.794-4,4-4c2.205,0,4,1.794,4,4S935.872,372,933.667,372z M947,372c-2.206,0-4-1.794-4-4s1.794-4,4-4s4,1.794,4,4
		S949.206,372,947,372z M960.333,372c-2.205,0-4-1.794-4-4s1.795-4,4-4c2.206,0,4,1.794,4,4S962.539,372,960.333,372z"></path> 
 <circle fill="#414042" cx="960.333" cy="368" r="1.333"></circle> 
 <path fill="#414042" d="M901.667,326.667H931c0.737,0,1.333-0.597,1.333-1.334V320c0-0.737-0.596-1.333-1.333-1.333h-29.333
		c-0.737,0-1.334,0.596-1.334,1.333v5.333C900.333,326.071,900.93,326.667,901.667,326.667z"></path> 
 <path fill="#414042" d="M971.323,305.373l-10.667-2.666c-0.058-0.014-0.112,0.01-0.169,0.005c-0.154-0.019-0.303-0.026-0.451,0.008
		c-0.088,0.021-0.161,0.063-0.244,0.102c-0.078,0.036-0.167,0.047-0.24,0.099l-24,17.334c-0.346,0.25-0.552,0.653-0.552,1.08v16h8
		v-11.299l18.922-13.047l7.227,21.68h-3.481c-0.206,0-0.412,0.049-0.597,0.141l-5.052,2.525h-7.686
		c-0.492,0-0.942,0.271-1.174,0.706c-0.234,0.433-0.209,0.958,0.064,1.367l5.334,8c0.247,0.37,0.664,0.594,1.109,0.594h10.666
		c0.612,0,1.146-0.417,1.295-1.011l2.666-10.666c0.011-0.039-0.005-0.078,0.003-0.117c0.011-0.07,0.036-0.133,0.036-0.206v-29.333
		C972.333,306.055,971.917,305.521,971.323,305.373z"></path> 
</g> 
 <g> <path fill="#414042" d="M913.667,185.333c-5.883,0-10.667,4.784-10.667,10.667s4.784,10.667,10.667,10.667
		s10.666-4.784,10.666-10.667S919.55,185.333,913.667,185.333z M913.667,201.333c-2.94,0-5.334-2.393-5.334-5.333
		s2.394-5.333,5.334-5.333c2.939,0,5.333,2.393,5.333,5.333S916.606,201.333,913.667,201.333z"></path> 
 <circle fill="#414042" cx="913.667" cy="196" r="2.667"></circle> 
 <path fill="#414042" d="M912.333,161.333h29.334c0.736,0,1.333-0.596,1.333-1.333v-5.333c0-0.737-0.597-1.334-1.333-1.334h-29.334
		c-0.736,0-1.333,0.597-1.333,1.334V160C911,160.738,911.597,161.333,912.333,161.333z"></path> 
 <path fill="#414042" d="M956.333,206.667c4.276,0,8.198-2.042,10.662-5.334h-21.323
		C948.136,204.625,952.058,206.667,956.333,206.667z"></path> 
 <path fill="#414042" d="M956.333,180c-4.275,0-8.197,2.042-10.661,5.333h21.323C964.531,182.042,960.609,180,956.333,180z"></path> 
 <path fill="#414042" d="M973.667,188H943v-17.333c0-0.109-0.013-0.217-0.039-0.323L941.375,164h-27.708v13.333H911v-4
		c0-0.736-0.597-1.333-1.333-1.333h-4v-4c0-0.737-0.597-1.333-1.334-1.333h-2.666c-0.737,0-1.334,0.596-1.334,1.333
		s0.597,1.333,1.334,1.333H903V172h-1.333c-0.737,0-1.334,0.597-1.334,1.333v4H899c-0.354,0-0.692,0.141-0.942,0.391l-2.667,2.667
		c-0.25,0.25-0.391,0.589-0.391,0.942v16c0,0.737,0.597,1.334,1.333,1.334h4.271c-0.178-0.862-0.271-1.753-0.271-2.667
		c0-7.352,5.982-13.333,13.334-13.333S927,188.649,927,196c0,0.914-0.094,1.805-0.271,2.667h9.604H971
		c0.505,0,0.966-0.284,1.192-0.737l2.667-5.333C974.95,192.412,975,192.207,975,192v-2.667C975,188.597,974.403,188,973.667,188z
		 M935,182.667h-8v-4c0-0.737-0.597-1.334-1.333-1.334h-4v-10.666h12.205l1.128,6.666V182.667z"></path> 
</g> 
 <g> <path fill="#414042" d="M812.175,191.373c-0.232-0.435-0.683-0.705-1.175-0.705h-6.198l-6.302-5.042
		c-0.237-0.188-0.531-0.292-0.833-0.292h-5.334c-0.461,0-0.891,0.24-1.135,0.633c-0.242,0.394-0.264,0.883-0.058,1.297l0.583,1.164
		l-8.07-11.094h-9.986c-0.734,0-1.334,0.597-1.334,1.334c0,0.736,0.6,1.333,1.334,1.333h8c0.43,0,0.836,0.208,1.086,0.56
		l9.622,13.475l0,0l1.292,1.805V200c0,0.737,0.596,1.333,1.333,1.333h10.667c0.445,0,0.861-0.224,1.109-0.594l5.333-8
		C812.383,192.332,812.409,191.805,812.175,191.373z"></path> 
 <path fill="#414042" d="M739,161.333h26.667c0.736,0,1.333-0.596,1.333-1.333v-5.333c0-0.737-0.597-1.334-1.333-1.334H739
		c-0.737,0-1.333,0.597-1.333,1.334V160C737.667,160.738,738.263,161.333,739,161.333z"></path> 
 <circle fill="#414042" cx="777.667" cy="198.667" r="1.333"></circle> 
 <path fill="#414042" d="M777.667,190.667c-4.412,0-8,3.588-8,8c0,4.411,3.588,8,8,8c4.411,0,8-3.589,8-8
		C785.667,194.255,782.078,190.667,777.667,190.667z M777.667,202.667c-2.206,0-4-1.795-4-4c0-2.206,1.794-4,4-4
		c2.205,0,4,1.794,4,4C781.667,200.873,779.872,202.667,777.667,202.667z"></path> 
 <path fill="#414042" d="M749.667,188c-5.146,0-9.334,4.188-9.334,9.333c0,5.146,4.188,9.334,9.334,9.334
		c5.146,0,9.333-4.188,9.333-9.334C759,192.188,754.813,188,749.667,188z M749.667,201.333c-2.206,0-4-1.794-4-4
		c0-2.205,1.794-4,4-4c2.205,0,4,1.795,4,4C753.667,199.54,751.872,201.333,749.667,201.333z"></path> 
 <circle fill="#414042" cx="749.667" cy="197.334" r="1.333"></circle> 
 <path fill="#414042" d="M773.667,182.667c-2.206,0-4-1.795-4-4c0-2.206,1.794-4,4-4h-4.373L765.739,164H739.75l-2.083,14.667v16
		c0,0.247,0.086,0.466,0.203,0.664c0.958-5.662,5.864-9.998,11.797-9.998c6.161,0,11.192,4.683,11.864,10.667h5.847
		c1.192-4.589,5.333-8,10.289-8c4.955,0,9.096,3.411,10.289,8h2.549l-9.523-13.333H773.667z M764.333,185.333h-9.018l-5.053-2.525
		c-0.185-0.092-0.391-0.141-0.596-0.141h-4.003l-0.005-3.867l1.213-12.133h12.5l4.961,14.883V185.333z"></path> 
</g> 
 <g> <path fill="#414042" d="M596.333,188c-5.883,0-10.667,4.784-10.667,10.667s4.784,10.666,10.667,10.666S607,204.55,607,198.667
		S602.216,188,596.333,188z M596.333,204c-2.94,0-5.333-2.394-5.333-5.333c0-2.94,2.393-5.334,5.333-5.334
		c2.94,0,5.333,2.394,5.333,5.334C601.667,201.607,599.273,204,596.333,204z"></path> 
 <circle fill="#414042" cx="596.333" cy="198.667" r="2.667"></circle> 
 <circle fill="#414042" cx="633.667" cy="198.667" r="2.667"></circle> 
 <path fill="#414042" d="M633.667,188c-5.883,0-10.667,4.784-10.667,10.667s4.784,10.666,10.667,10.666s10.666-4.783,10.666-10.666
		S639.55,188,633.667,188z M633.667,204c-2.94,0-5.334-2.394-5.334-5.333c0-2.94,2.394-5.334,5.334-5.334
		c2.939,0,5.333,2.394,5.333,5.334C639,201.607,636.606,204,633.667,204z"></path> 
 <rect x="588.333" y="172" fill="#414042" width="2.667" height="8"></rect> 
 <path fill="#414042" d="M644.526,176.232l-8.42-1.398l-4.778-21.5h1.005c0.737,0,1.334-0.596,1.334-1.333s-0.597-1.333-1.334-1.333
		h-2.666H603h-2.667c-0.737,0-1.333,0.596-1.333,1.333s0.596,1.333,1.333,1.333h1.004l-4.772,21.477l-2.898,0.412v6.111
		c0,0.737-0.596,1.334-1.333,1.334H587c-0.737,0-1.333-0.597-1.333-1.334v-4.974l-2.281,0.323c-3.313,0.5-5.719,3.275-5.719,6.599
		v14.052c0,0.737,0.597,1.334,1.333,1.334h4c0-7.352,5.982-13.334,13.333-13.334s13.333,5.982,13.333,13.334h10.667
		c0-7.352,5.982-13.334,13.334-13.334S647,191.316,647,198.667h4c0.737,0,1.333-0.597,1.333-1.334v-11.893
		C652.333,180.852,649.05,176.98,644.526,176.232z M606.07,180l-6.904-4.602l4.904-22.065h8.263V180H606.07z M615,180v-26.667
		h13.597l4.903,22.065L626.597,180H615z"></path> 
 <path fill="#414042" d="M588.333,163.219v6.114H591v-6.666c0-0.354-0.141-0.693-0.391-0.943l-2.667-2.666
		c-0.521-0.521-1.365-0.521-1.886,0c-0.521,0.521-0.521,1.364,0,1.885L588.333,163.219z"></path> 
</g> 
 <g> <path fill="#414042" d="M429.667,161.333H451c0.505,0,0.966-0.283,1.193-0.736l2.667-5.334c0.207-0.414,0.185-0.903-0.059-1.297
		c-0.244-0.393-0.672-0.633-1.134-0.633h-24c-0.737,0-1.333,0.597-1.333,1.334V160C428.333,160.738,428.93,161.333,429.667,161.333z
		"></path> 
 <circle fill="#414042" cx="456.333" cy="197.334" r="1.333"></circle> 
 <path fill="#414042" d="M456.333,188c-5.146,0-9.333,4.188-9.333,9.333c0,5.146,4.188,9.334,9.333,9.334
		c5.146,0,9.333-4.188,9.333-9.334C465.667,192.188,461.479,188,456.333,188z M456.333,201.333c-2.206,0-4-1.794-4-4
		c0-2.205,1.794-4,4-4c2.206,0,4,1.795,4,4C460.333,199.54,458.539,201.333,456.333,201.333z"></path> 
 <circle fill="#414042" cx="427" cy="197.334" r="1.333"></circle> 
 <path fill="#414042" d="M427,188c-5.146,0-9.333,4.188-9.333,9.333c0,5.146,4.188,9.334,9.333,9.334s9.333-4.188,9.333-9.334
		C436.333,192.188,432.146,188,427,188z M427,201.333c-2.206,0-4-1.794-4-4c0-2.205,1.794-4,4-4s4,1.795,4,4
		C431,199.54,429.206,201.333,427,201.333z"></path> 
 <polygon fill="#414042" points="423,174.667 423,180 425.667,180 425.667,174.667 425.667,172 423,172 	"></polygon> 
 <path fill="#414042" d="M423,165.886v3.447h2.667v-4c0-0.354-0.141-0.692-0.391-0.942l-2.667-2.667
		c-0.521-0.521-1.365-0.521-1.885,0c-0.521,0.521-0.521,1.365,0,1.886L423,165.886z"></path> 
 <path fill="#414042" d="M497.509,191.373c-0.232-0.435-0.684-0.705-1.176-0.705h-9.765l-4.997-12.495
		c-0.238-0.597-0.873-0.935-1.491-0.815c-0.627,0.123-1.081,0.672-1.081,1.311v5.841l-3.404-1.7
		c-0.185-0.092-0.389-0.141-0.596-0.141h-4.134c-0.655-4.511-4.51-8-9.199-8h-7.039L451.072,164H431v10.667h-2.667v6.666
		c0,0.737-0.597,1.334-1.333,1.334h-5.333c-0.737,0-1.333-0.597-1.333-1.334v-6.666h-4c-0.505,0-0.966,0.283-1.193,0.736
		l-2.667,5.334c-0.093,0.185-0.141,0.391-0.141,0.596v13.334c0,0.736,0.596,1.333,1.333,1.333h1.468
		c0.674-5.984,5.706-10.667,11.866-10.667s11.191,4.683,11.866,10.667h5.602c0.675-5.984,5.706-10.667,11.866-10.667
		s11.191,4.683,11.866,10.667h1.467c0.737,0,1.333-0.597,1.333-1.333v-9.334h3.685l4.315,2.159v7.175
		c0,3.674,2.991,6.666,6.667,6.666h2.479c2.234,0,4.307-1.109,5.547-2.969l3.75-5.625
		C497.715,192.332,497.741,191.805,497.509,191.373z M441.667,180v-9.333c0-0.737-0.596-1.334-1.333-1.334H439v-2.666h5.706
		L449.15,180H441.667z M464.333,182.667h-2.667c-0.737,0-1.333-0.597-1.333-1.334c0-0.736,0.596-1.333,1.333-1.333h2.667
		c0.737,0,1.333,0.597,1.333,1.333C465.667,182.071,465.07,182.667,464.333,182.667z"></path> 
</g> 
 <g> <path fill="#414042" d="M334.733,156.535l-4-5.334c-0.251-0.336-0.647-0.533-1.066-0.533h-19.803l-26.48-7.943
		c-0.057-0.018-0.119-0.008-0.177-0.016c-0.07-0.01-0.133-0.041-0.206-0.041c-0.031,0-0.056,0.016-0.087,0.018
		c-0.079,0.006-0.152,0.026-0.23,0.047c-0.102,0.023-0.196,0.05-0.286,0.097c-0.026,0.013-0.056,0.013-0.082,0.028L271,149.646
		v-0.313c0-0.736-0.596-1.333-1.333-1.333h-8c-0.737,0-1.333,0.597-1.333,1.333v1.334h-4c-0.737,0-1.333,0.596-1.333,1.333v5.333
		c0,0.737,0.596,1.334,1.333,1.334h4V160c0,0.737,0.596,1.333,1.333,1.333h8c0.737,0,1.333-0.596,1.333-1.333v-1.333h10.667v2.666
		h-1.333c-0.737,0-1.333,0.597-1.333,1.334v10.666c0,0.737,0.596,1.334,1.333,1.334H291c0.737,0,1.333-0.597,1.333-1.334v-8
		c0-0.352-0.141-0.692-0.391-0.939l-2.667-2.67c-0.25-0.25-0.588-0.391-0.942-0.391h-4v-2.666h29.574l2.452,12.26
		c0.002,0.014,0.01,0.023,0.014,0.037c0.001,0.008-0.002,0.018,0,0.025l1.333,5.334c0.148,0.594,0.681,1.01,1.293,1.01h1.333v4
		c0,0.737,0.596,1.334,1.333,1.334c0.736,0,1.333,0.596,1.333,1.333s-0.598,1.333-1.333,1.333c-0.735,0-1.333-0.596-1.333-1.333
		s-0.597-1.333-1.333-1.333s-1.333,0.596-1.333,1.333c0,2.206,1.794,4,4,4c2.206,0,4-1.794,4-4c0-1.739-1.114-3.222-2.667-3.773
		v-2.894h1.333c0.612,0,1.145-0.416,1.293-1.01l1.333-5.334c0.003-0.008-0.001-0.018,0-0.025c0.004-0.014,0.012-0.023,0.015-0.037
		l2.452-12.26h4.241c0.505,0,0.966-0.284,1.193-0.737C335.084,157.48,335.037,156.938,334.733,156.535z M260.333,156h-2.667v-2.667
		h2.667V156z M281.667,156H271v-2.667h10.667V156z M281.667,150.667h-7.186l7.186-4.313V150.667z M284.333,145.792l16.247,4.875
		h-16.247V145.792z M324.574,169.333h-5.815l-2.133-10.666h10.081L324.574,169.333z M284.333,156v-2.667H329l2,2.667H284.333z"></path> 
 <path fill="#414042" d="M291,209.333h-1.333v-32h-8v32h-1.333c-0.737,0-1.333,0.597-1.333,1.334V216
		c0,0.737,0.596,1.333,1.333,1.333H291c0.737,0,1.333-0.596,1.333-1.333v-5.333C292.333,209.93,291.737,209.333,291,209.333z"></path> 
</g> 
 <g> <circle fill="#414042" cx="917.667" cy="48" r="1.333"></circle> 
 <path fill="#414042" d="M917.667,38.667c-5.146,0-9.334,4.188-9.334,9.333s4.188,9.333,9.334,9.333
		c5.146,0,9.333-4.188,9.333-9.333S922.813,38.667,917.667,38.667z M917.667,52c-2.206,0-4-1.794-4-4s1.794-4,4-4
		c2.205,0,4,1.794,4,4S919.872,52,917.667,52z"></path> 
 <circle fill="#414042" cx="947" cy="48" r="1.333"></circle> 
 <path fill="#414042" d="M947,38.667c-5.146,0-9.333,4.188-9.333,9.333s4.188,9.333,9.333,9.333s9.333-4.188,9.333-9.333
		S952.146,38.667,947,38.667z M947,52c-2.206,0-4-1.794-4-4s1.794-4,4-4s4,1.794,4,4S949.206,52,947,52z"></path> 
 <path fill="#414042" d="M965.667,33.333H899c-0.737,0-1.333,0.597-1.333,1.334v10.666c0,0.737,0.596,1.334,1.333,1.334h1.333v8H899
		c-0.737,0-1.333,0.596-1.333,1.333s0.596,1.333,1.333,1.333h5.333c0.737,0,1.334-0.596,1.334-1.333s-0.597-1.333-1.334-1.333H903
		v-8h2.802C906.474,40.683,911.505,36,917.667,36c6.161,0,11.192,4.683,11.864,10.667h5.604C935.808,40.683,940.839,36,947,36
		s11.192,4.683,11.864,10.667h2.803v8h-1.334c-0.736,0-1.333,0.596-1.333,1.333s0.597,1.333,1.333,1.333h5.334
		c0.736,0,1.333-0.596,1.333-1.333s-0.597-1.333-1.333-1.333h-1.334v-8h1.334c0.736,0,1.333-0.597,1.333-1.334V34.667
		C967,33.93,966.403,33.333,965.667,33.333z"></path> 
 <path fill="#414042" d="M971.942,12.391l-2.677-2.677c0.25-0.521,0.401-1.098,0.401-1.713c0-2.206-1.795-4-4-4
		c-2.206,0-4,1.794-4,4c0,0.616,0.15,1.193,0.4,1.713l-2.677,2.677c-0.406,0.406-0.508,1.026-0.25,1.539l2.667,5.333
		C962.042,19.731,962.513,20,963,20c0.2,0,0.403-0.045,0.597-0.141c0.658-0.33,0.924-1.13,0.596-1.789l-2.236-4.474l1.997-1.997
		c0.521,0.25,1.099,0.401,1.714,0.401c0.614,0,1.192-0.151,1.713-0.401l1.998,1.997l-2.237,4.474
		c-0.328,0.659-0.063,1.459,0.597,1.789c0.192,0.095,0.396,0.141,0.596,0.141c0.487,0,0.959-0.27,1.193-0.737l2.666-5.333
		C972.45,13.417,972.349,12.797,971.942,12.391z"></path> 
 <path fill="#414042" d="M929.667,25.333c0-0.396-0.175-0.771-0.479-1.025l-0.333-0.276l7.195-7.195
		c0.328-0.327,0.461-0.801,0.354-1.251c-0.075-0.313-0.283-0.551-0.533-0.735l26.596-25.806c0.469,0.629,1.115,1.109,1.867,1.377
		V1.469c0.43-0.088,0.878-0.135,1.334-0.135c0.455,0,0.9,0.047,1.333,0.135V-9.579c1.55-0.552,2.667-2.018,2.667-3.754
		c0-2.206-1.795-4-4-4c-1.992,0-3.633,1.466-3.938,3.373l-28.639,27.788l-3.247-1.067c-0.479-0.152-1.005-0.033-1.362,0.325
		l-5.789,5.812l-1.505-1.254c-0.239-0.199-0.542-0.309-0.854-0.309h-10.666c-0.737,0-1.334,0.596-1.334,1.333v12h21.334V25.333z"></path> 
</g> 
 <g> <path fill="#414042" d="M761.667,33.333c-2.94,0-5.334,2.394-5.334,5.334c0,2.939,2.394,5.333,5.334,5.333
		c2.939,0,5.333-2.394,5.333-5.333C767,35.727,764.606,33.333,761.667,33.333z"></path> 
 <circle fill="#414042" cx="807" cy="41.334" r="2.667"></circle> 
 <path fill="#414042" d="M807,30.667c-5.883,0-10.667,4.783-10.667,10.666S801.117,52,807,52s10.667-4.784,10.667-10.667
		S812.883,30.667,807,30.667z M807,46.667c-2.94,0-5.333-2.394-5.333-5.334c0-2.939,2.393-5.333,5.333-5.333
		s5.333,2.394,5.333,5.333C812.333,44.274,809.94,46.667,807,46.667z"></path> 
 <rect x="793.667" y="9.334" fill="#414042" width="2.666" height="8"></rect> 
 <path fill="#414042" d="M807,28c1.958,0,3.88,0.427,5.711,1.266c0.445,0.2,0.964,0.148,1.359-0.148
		c0.391-0.297,0.589-0.781,0.513-1.269l-2.266-14.718C812.219,12.481,811.659,12,811,12h-12v6.667c0,0.737-0.597,1.333-1.333,1.333
		h-5.334c-0.736,0-1.333-0.596-1.333-1.333V12h-5.333V-4H787c0.737,0,1.333-0.596,1.333-1.333v-5.333
		c0-0.737-0.596-1.333-1.333-1.333h-34.667c-0.736,0-1.333,0.596-1.333,1.333v5.333C751-4.596,751.597-4,752.333-4h1.334v24h-3.625
		l0.919-3.677c0.099-0.398,0.011-0.82-0.242-1.143c-0.253-0.324-0.641-0.513-1.052-0.513h-16c-0.412,0-0.8,0.189-1.053,0.513
		c-0.252,0.323-0.341,0.745-0.242,1.143l2.667,10.667c0.148,0.594,0.683,1.011,1.294,1.011H747c0.612,0,1.146-0.417,1.294-1.011
		l1.081-4.322h4.292v5.4c-3.219,2.438-5.334,6.261-5.334,10.6c0,7.352,5.982,13.333,13.334,13.333S775,46.019,775,38.667
		c0-4.378-2.148-8.234-5.417-10.667h3.977c2.547,2.833,4.107,6.567,4.107,10.667h16c0.549,0,1.041-0.339,1.242-0.85
		C796.815,32.93,801.294,28,807,28z M803,17.334h2.667c0.736,0,1.333,0.596,1.333,1.333c0,0.737-0.597,1.333-1.333,1.333H803
		c-0.737,0-1.333-0.596-1.333-1.333C801.667,17.93,802.263,17.334,803,17.334z M761.667,46.667c-4.412,0-8-3.589-8-8
		c0-4.412,3.588-8,8-8c4.411,0,8,3.588,8,8C769.667,43.079,766.078,46.667,761.667,46.667z M767,25.333v-2.666h1.333
		c2.206,0,4-1.794,4-4c0-2.206-1.794-4-4-4H767V8c0-2.206-1.794-4-4-4s-4,1.794-4,4v8v0.053v5.28c0,0.737,0.597,1.334,1.333,1.334h4
		v2.666h-2.666c-1.898,0-3.698,0.412-5.334,1.131V-4H783v17.333v1.223l-2.317-1.858l2.025-2.531
		c0.459-0.575,0.367-1.414-0.208-1.875c-0.573-0.456-1.414-0.366-1.875,0.208l-5.333,6.667c-0.459,0.576-0.367,1.414,0.208,1.875
		c0.247,0.197,0.539,0.292,0.833,0.292c0.391,0,0.779-0.172,1.042-0.5l1.644-2.054L783,17.973v7.36h-12.508H767z"></path> 
 <path fill="#414042" d="M796.333-2.114l2.276-2.276c0.521-0.521,0.521-1.365,0-1.885c-0.521-0.521-1.364-0.521-1.886,0
		l-2.666,2.667c-0.25,0.25-0.391,0.588-0.391,0.943v9.333h2.666V-2.114z"></path> 
</g> 
 <g> <path fill="#414042" d="M652.192-16.596c-0.33-0.659-1.13-0.922-1.789-0.597l-9.807,4.904l-0.639-0.639l1.5-2.355
		c0.396-0.621,0.214-1.445-0.408-1.841c-0.615-0.389-1.443-0.215-1.842,0.409l-1.182,1.857l-2.084-2.083
		c-0.521-0.521-1.364-0.521-1.885,0c-0.521,0.521-0.521,1.365,0,1.886l2.5,2.5l-22.474,35.265c-0.14-0.013-0.273-0.041-0.417-0.041
		c-1.735,0-3.202,1.117-3.754,2.666h-1.579H603h-6.913c0.149-0.419,0.246-0.864,0.246-1.333c0-2.206-1.794-4-4-4
		c-0.66,0-1.275,0.176-1.824,0.461c-0.843-1.84-2.69-3.127-4.843-3.127c-2.94,0-5.333,2.392-5.333,5.333
		c0,0.977,0.282,1.88,0.742,2.666H579c-0.737,0-1.333,0.597-1.333,1.334c0,0.736,0.597,1.333,1.333,1.333h22.667v8.409L581.423,44
		H579c-0.737,0-1.333,0.597-1.333,1.333v5.334c0,0.736,0.597,1.333,1.333,1.333h2.913c-0.149,0.419-0.246,0.864-0.246,1.333
		c0,2.206,1.794,4,4,4c2.206,0,4-1.794,4-4c0-0.469-0.096-0.914-0.246-1.333h32.491c-0.148,0.419-0.244,0.864-0.244,1.333
		c0,2.206,1.794,4,4,4c2.205,0,4-1.794,4-4c0-0.469-0.097-0.914-0.245-1.333h2.911c0.737,0,1.334-0.597,1.334-1.333v-5.334
		c0-0.018-0.011-0.031-0.011-0.049c-0.003-0.1-0.031-0.188-0.055-0.279c-0.021-0.078-0.031-0.156-0.065-0.229
		c-0.033-0.076-0.088-0.136-0.138-0.203c-0.052-0.073-0.094-0.146-0.159-0.206c-0.055-0.052-0.122-0.086-0.188-0.128
		c-0.083-0.055-0.161-0.111-0.252-0.146c-0.019-0.005-0.029-0.019-0.045-0.023l-23.088-7.698V28h0.246
		c0.552,1.55,2.019,2.667,3.754,2.667c2.206,0,4-1.795,4-4c0-1.094-0.443-2.084-1.155-2.805l21.978-34.487l0.901,0.901
		c0.255,0.257,0.597,0.391,0.942,0.391c0.203,0,0.406-0.045,0.597-0.141l2.992-1.496l-3.57,21.418
		c-0.013,0.074,0.011,0.145,0.011,0.219s-0.023,0.145-0.011,0.219l1.333,8C641.792,19.529,642.349,20,643,20h1.333v4
		c0,0.737,0.597,1.333,1.334,1.333c0.734,0,1.333,0.597,1.333,1.334c0,0.736-0.599,1.333-1.333,1.333s-1.334-0.597-1.334-1.333
		c0-0.737-0.596-1.334-1.333-1.334s-1.333,0.597-1.333,1.334c0,2.205,1.794,4,4,4c2.205,0,4-1.795,4-4
		c0-1.74-1.115-3.222-2.667-3.773V20h1.333c0.651,0,1.209-0.471,1.315-1.115l1.333-8c0.014-0.074-0.01-0.145-0.01-0.219
		s0.023-0.145,0.01-0.219l-3.838-23.028l4.453-2.227C652.255-15.136,652.521-15.937,652.192-16.596z M601.667,39.258V44h-12.646
		L601.667,39.258z M624.117,44h-14.451v-4.817L624.117,44z M648.094,9.334h-4.854l2.428-14.556L648.094,9.334z"></path> 
 <path fill="#414042" d="M595,38.667c0.737,0,1.333-0.597,1.333-1.334v-6.666h-16v6.666c0,0.737,0.596,1.334,1.333,1.334H595z"></path> 
</g> 
 <g> <circle fill="#414042" cx="440.331" cy="48" r="1.333"></circle> 
 <circle fill="#414042" cx="426.998" cy="48" r="1.333"></circle> 
 <circle fill="#414042" cx="453.664" cy="48" r="1.333"></circle> 
 <circle fill="#414042" cx="466.998" cy="48" r="1.333"></circle> 
 <path fill="#414042" d="M466.998,38.667h-40c-5.146,0-9.333,4.188-9.333,9.333s4.188,9.333,9.333,9.333h40
		c5.146,0,9.333-4.188,9.333-9.333S472.143,38.667,466.998,38.667z M426.998,52c-2.206,0-4-1.794-4-4s1.794-4,4-4
		c2.206,0,4,1.794,4,4S429.203,52,426.998,52z M440.331,52c-2.206,0-4-1.794-4-4s1.794-4,4-4c2.206,0,4,1.794,4,4
		S442.537,52,440.331,52z M453.664,52c-2.206,0-4-1.794-4-4s1.794-4,4-4s4,1.794,4,4S455.87,52,453.664,52z M466.998,52
		c-2.206,0-4-1.794-4-4s1.794-4,4-4c2.206,0,4,1.794,4,4S469.203,52,466.998,52z"></path> 
 <path fill="#414042" d="M491,20c-0.737,0-1.333,0.596-1.333,1.333c0,0.736-0.598,1.334-1.333,1.334
		c-0.736,0-1.333-0.598-1.333-1.334c0-0.735,0.598-1.333,1.333-1.333c0.737,0,1.333-0.596,1.333-1.333v-4H491
		c0.652,0,1.208-0.471,1.315-1.114l1.333-8c0.065-0.387-0.044-0.781-0.298-1.081C493.098,4.172,492.725,4,492.333,4h-2.667v-13.58
		c1.548-0.552,2.667-2.018,2.667-3.754c0-2.206-1.794-4-4-4c-1.923,0-3.533,1.365-3.913,3.177L447.979,6.667h-10.315
		c-0.737,0-1.333,0.597-1.333,1.333v5.333c0,0.737,0.597,1.333,1.333,1.333h29.333c0.737,0,1.333-0.596,1.333-1.333V8
		c0-0.737-0.596-1.333-1.333-1.333h-1.824l19.903-17.692c0.473,0.664,1.142,1.169,1.923,1.446V4h-2.667
		c-0.392,0-0.765,0.172-1.017,0.471c-0.254,0.3-0.363,0.694-0.298,1.081l1.333,8c0.107,0.643,0.663,1.114,1.315,1.114H487v2.895
		c-1.552,0.551-2.667,2.034-2.667,3.772c0,2.206,1.794,4,4,4c2.206,0,4-1.794,4-4C492.333,20.597,491.737,20,491,20z M461.16,6.667
		h-7.806l21.855-12.489L461.16,6.667z"></path> 
 <path fill="#414042" d="M431,34.667c0-0.737,0.596-1.334,1.333-1.334h5.333c0.737,0,1.333,0.597,1.333,1.334
		c0,0.736-0.596,1.333-1.333,1.333h30.656l-0.018-9.594l-1.814-9.073h-27.492L439,28h-12c-0.353,0-0.693,0.141-0.943,0.391
		l-5.336,5.333c-0.25,0.25-0.391,0.589-0.391,0.943V36h12.003C431.596,36,431,35.404,431,34.667z M446.998,20h11.039l2.294,6.883
		v6.45h-8v-4c0-0.736-0.596-1.333-1.333-1.333h-4V20z"></path> 
</g> 
 <g> <circle fill="#414042" cx="293.667" cy="48" r="1.333"></circle> 
 <circle fill="#414042" cx="280.333" cy="48" r="1.333"></circle> 
 <circle fill="#414042" cx="307" cy="48" r="1.333"></circle> 
 <circle fill="#414042" cx="267" cy="48" r="1.333"></circle> 
 <circle fill="#414042" cx="320.333" cy="48" r="1.333"></circle> 
 <path fill="#414042" d="M320.333,38.667H311V36h1.333c0.737,0,1.333-0.597,1.333-1.333V21.333c0-0.143-0.023-0.285-0.069-0.421
		l-3.859-11.578h-25.405v24h-2.667v-16h-9.333c-0.207,0-0.412,0.048-0.597,0.141l-10.667,5.333
		c-0.452,0.227-0.737,0.688-0.737,1.192v10.667c0,0.736,0.596,1.333,1.333,1.333h6.667v2.667H267c-5.146,0-9.333,4.188-9.333,9.333
		s4.188,9.333,9.333,9.333h53.333c5.146,0,9.333-4.188,9.333-9.333S325.479,38.667,320.333,38.667z M289.667,12h13.625l2.375,9.497
		V28H295v-6.667c0-0.505-0.285-0.966-0.737-1.192l-4.597-2.298V12z M267,52c-2.206,0-4-1.794-4-4s1.794-4,4-4s4,1.794,4,4
		S269.206,52,267,52z M280.333,52c-2.206,0-4-1.794-4-4s1.794-4,4-4c2.206,0,4,1.794,4,4S282.539,52,280.333,52z M293.667,52
		c-2.206,0-4-1.794-4-4s1.794-4,4-4c2.206,0,4,1.794,4,4S295.873,52,293.667,52z M307,52c-2.206,0-4-1.794-4-4s1.794-4,4-4
		s4,1.794,4,4S309.206,52,307,52z M320.333,52c-2.206,0-4-1.794-4-4s1.794-4,4-4c2.206,0,4,1.794,4,4S322.539,52,320.333,52z"></path> 
 <path fill="#414042" d="M309.667,6.667c0.737,0,1.333-0.596,1.333-1.333V0c0-0.737-0.596-1.333-1.333-1.333h-29.333
		C279.596-1.333,279-0.736,279,0v5.333c0,0.737,0.596,1.333,1.333,1.333H309.667z"></path> 
 <path fill="#414042" d="M331.943,15.058l-2.677-2.677c0.25-0.521,0.401-1.098,0.401-1.714c0-1.735-1.118-3.202-2.667-3.754V-9.579
		c1.548-0.552,2.667-2.018,2.667-3.754c0-2.206-1.794-4-4-4c-1.807,0-3.32,1.212-3.815,2.861L266.75-3.976
		c-0.002,0-0.004,0.001-0.006,0.002C264.659-3.838,263-2.118,263,0v18.861l7.544-3.772c0.145-0.073,0.303-0.11,0.456-0.165V0
		c0-0.719-0.206-1.385-0.539-1.969l51.52-9.813c0.435,1.029,1.295,1.826,2.353,2.202V6.913c-1.548,0.552-2.667,2.019-2.667,3.754
		c0,0.616,0.151,1.193,0.401,1.714l-2.677,2.677c-0.406,0.406-0.506,1.026-0.25,1.539l2.667,5.333
		c0.234,0.468,0.705,0.737,1.194,0.737c0.2,0,0.403-0.046,0.595-0.141c0.659-0.33,0.926-1.131,0.597-1.79l-2.237-4.474l1.998-1.998
		c0.521,0.25,1.098,0.401,1.713,0.401c0.616,0,1.193-0.151,1.714-0.401l1.997,1.998l-2.237,4.474
		c-0.33,0.659-0.063,1.459,0.596,1.79c0.191,0.095,0.395,0.141,0.595,0.141c0.49,0,0.959-0.27,1.194-0.737l2.667-5.333
		C332.449,16.084,332.349,15.464,331.943,15.058z"></path> 
</g> 
 <g> <circle fill="#414042" cx="269.667" cy="-112" r="1.333"></circle> 
 <path fill="#414042" d="M269.667-121.333c-5.146,0-9.333,4.188-9.333,9.333s4.188,9.333,9.333,9.333
		c5.146,0,9.333-4.188,9.333-9.333S274.813-121.333,269.667-121.333z M269.667-108c-2.206,0-4-1.794-4-4s1.794-4,4-4
		c2.206,0,4,1.794,4,4S271.873-108,269.667-108z"></path> 
 <circle fill="#414042" cx="293.667" cy="-112" r="1.333"></circle> 
 <path fill="#414042" d="M293.667-121.333c-5.146,0-9.333,4.188-9.333,9.333s4.188,9.333,9.333,9.333
		c5.146,0,9.333-4.188,9.333-9.333S298.813-121.333,293.667-121.333z M293.667-108c-2.206,0-4-1.794-4-4s1.794-4,4-4
		c2.206,0,4,1.794,4,4S295.873-108,293.667-108z"></path> 
 <circle fill="#414042" cx="320.333" cy="-112" r="1.333"></circle> 
 <path fill="#414042" d="M320.333-121.333c-5.146,0-9.333,4.188-9.333,9.333s4.188,9.333,9.333,9.333
		c5.146,0,9.333-4.188,9.333-9.333S325.479-121.333,320.333-121.333z M320.333-108c-2.206,0-4-1.794-4-4s1.794-4,4-4
		c2.206,0,4,1.794,4,4S322.539-108,320.333-108z"></path> 
 <rect x="329.667" y="-126.666" fill="#414042" width="5.333" height="2.667"></rect> 
 <path fill="#414042" d="M292.333-133.333c0-0.737-0.597-1.333-1.333-1.333h-4v-12c0-1.072-0.428-2.041-1.117-2.759l39.018-21.948
		c0.474,0.817,1.195,1.473,2.099,1.794v5.58h-1.333c-0.462,0-0.891,0.24-1.134,0.633c-0.244,0.393-0.266,0.884-0.059,1.297
		l2.526,5.052v2.352c0,0.737,0.596,1.333,1.333,1.333c0.735,0,1.333,0.598,1.333,1.333s-0.598,1.333-1.333,1.333
		c-0.736,0-1.333-0.598-1.333-1.333c0-0.737-0.596-1.333-1.333-1.333c-0.737,0-1.333,0.597-1.333,1.333c0,2.206,1.794,4,4,4
		c2.206,0,4-1.794,4-4c0-1.738-1.115-3.221-2.667-3.772v-1.246l2.526-5.052c0.207-0.413,0.185-0.904-0.059-1.297
		C331.891-163.76,331.462-164,331-164h-1.333v-5.58c1.548-0.552,2.667-2.018,2.667-3.754c0-2.206-1.794-4-4-4
		c-1.922,0-3.529,1.362-3.912,3.171l-41.846,23.539c-2.004,0.215-3.576,1.897-3.576,3.957v12h-4c-0.737,0-1.333,0.596-1.333,1.333v4
		h18.667V-133.333z"></path> 
 <path fill="#414042" d="M333.667-134.666h-5.844L325.15-140h-11.483v5.333h6.667c0.737,0,1.333,0.596,1.333,1.333
		c0,0.737-0.596,1.333-1.333,1.333h-8c-0.737,0-1.333-0.596-1.333-1.333v-8c0-0.737,0.596-1.333,1.333-1.333h11.479l-0.82-1.637
		c-1.141-2.28-3.426-3.697-5.966-3.697H307c-0.737,0-1.333,0.596-1.333,1.333v20h-49.333c-0.737,0-1.333,0.596-1.333,1.333v10.667
		c0,0.737,0.596,1.333,1.333,1.333h1.467c0.674-5.983,5.706-10.667,11.866-10.667c5.698,0,10.458,4,11.679,9.333h0.643
		c1.22-5.333,5.98-9.333,11.678-9.333c6.16,0,11.191,4.684,11.866,10.667H307h1.467c0.675-5.983,5.706-10.667,11.866-10.667
		s11.191,4.684,11.866,10.667h1.467c0.737,0,1.333-0.596,1.333-1.333v-6.667h-6.667c-0.737,0-1.333-0.596-1.333-1.333V-128
		c0-0.737,0.596-1.333,1.333-1.333H335v-4C335-134.07,334.404-134.666,333.667-134.666z M317.667-126.666h-5.333
		c-0.737,0-1.333-0.597-1.333-1.333s0.596-1.333,1.333-1.333h5.333c0.737,0,1.333,0.597,1.333,1.333
		S318.404-126.666,317.667-126.666z"></path> 
</g> 
 <g> <circle fill="#FFFFFF" cx="269.667" cy="-280" r="1.333"></circle> 
 <path fill="#FFFFFF" d="M260.333-280c0,5.146,4.188,9.333,9.333,9.333c5.146,0,9.333-4.188,9.333-9.333s-4.188-9.333-9.333-9.333
		C264.521-289.333,260.333-285.146,260.333-280z M269.667-284c2.206,0,4,1.794,4,4s-1.794,4-4,4c-2.206,0-4-1.794-4-4
		S267.461-284,269.667-284z"></path> 
 <circle fill="#FFFFFF" cx="296.333" cy="-280" r="1.333"></circle> 
 <path fill="#FFFFFF" d="M287-280c0,5.146,4.188,9.333,9.333,9.333c5.146,0,9.333-4.188,9.333-9.333s-4.188-9.333-9.333-9.333
		C291.188-289.333,287-285.146,287-280z M296.333-284c2.206,0,4,1.794,4,4s-1.794,4-4,4c-2.206,0-4-1.794-4-4
		S294.127-284,296.333-284z"></path> 
 <circle fill="#FFFFFF" cx="323" cy="-280" r="1.333"></circle> 
 <path fill="#FFFFFF" d="M323-289.333c-5.146,0-9.333,4.188-9.333,9.333s4.188,9.333,9.333,9.333s9.333-4.188,9.333-9.333
		S328.146-289.333,323-289.333z M323-276c-2.206,0-4-1.794-4-4s1.794-4,4-4s4,1.794,4,4S325.206-276,323-276z"></path> 
 <rect x="332.333" y="-294.666" fill="#FFFFFF" width="5.333" height="2.667"></rect> 
 <path fill="#FFFFFF" d="M336.333-305.333h-5.844l-2.673-5.333h-11.483v5.333H323c0.737,0,1.333,0.597,1.333,1.333
		s-0.597,1.333-1.333,1.333h-8c-0.737,0-1.333-0.597-1.333-1.333v-8c0-0.737,0.597-1.333,1.333-1.333h11.479l-0.82-1.637
		c-1.141-2.28-3.426-3.696-5.966-3.696H311V-328c0-0.737-0.596-1.333-1.333-1.333h-56c-0.737,0-1.333,0.597-1.333,1.333v37.333
		c0,0.737,0.596,1.333,1.333,1.333h4v6.667c0,0.247,0.086,0.466,0.202,0.664c0.501-2.953,2.091-5.526,4.325-7.331h7.473h7.519
		c2.055,1.667,3.549,4,4.16,6.667h3.31c0.611-2.667,2.105-5,4.16-6.667h7.519h7.432c2.402,1.94,4.069,4.763,4.434,8h1.467h1.468
		C311.809-287.316,316.84-292,323-292s11.191,4.684,11.866,10.667h1.468c0.737,0,1.333-0.596,1.333-1.333v-6.667H331
		c-0.737,0-1.333-0.596-1.333-1.333V-296c0-0.737,0.597-1.333,1.333-1.333h6.667V-304
		C337.667-304.736,337.07-305.333,336.333-305.333z M300.333-322.666c0-0.737,0.596-1.333,1.333-1.333
		c0.737,0,1.333,0.596,1.333,1.333V-296c0,0.737-0.596,1.333-1.333,1.333c-0.737,0-1.333-0.597-1.333-1.333V-322.666z M295-322.666
		c0-0.737,0.596-1.333,1.333-1.333c0.737,0,1.333,0.596,1.333,1.333V-296c0,0.737-0.596,1.333-1.333,1.333
		c-0.737,0-1.333-0.597-1.333-1.333V-322.666z M289.667-322.666c0-0.737,0.597-1.333,1.333-1.333s1.333,0.596,1.333,1.333V-296
		c0,0.737-0.597,1.333-1.333,1.333s-1.333-0.597-1.333-1.333V-322.666z M284.333-322.666c0-0.737,0.596-1.333,1.333-1.333
		c0.737,0,1.333,0.596,1.333,1.333V-296c0,0.737-0.596,1.333-1.333,1.333c-0.737,0-1.333-0.597-1.333-1.333V-322.666z M279-322.666
		c0-0.737,0.596-1.333,1.333-1.333c0.737,0,1.333,0.596,1.333,1.333V-296c0,0.737-0.596,1.333-1.333,1.333
		c-0.737,0-1.333-0.597-1.333-1.333V-322.666z M273.667-322.666c0-0.737,0.597-1.333,1.333-1.333s1.333,0.596,1.333,1.333V-296
		c0,0.737-0.597,1.333-1.333,1.333s-1.333-0.597-1.333-1.333V-322.666z M268.333-322.666c0-0.737,0.596-1.333,1.333-1.333
		c0.737,0,1.333,0.596,1.333,1.333V-296c0,0.737-0.596,1.333-1.333,1.333c-0.737,0-1.333-0.597-1.333-1.333V-322.666z M263-322.666
		c0-0.737,0.596-1.333,1.333-1.333c0.737,0,1.333,0.596,1.333,1.333V-296c0,0.737-0.596,1.333-1.333,1.333
		c-0.737,0-1.333-0.597-1.333-1.333V-322.666z M257.667-322.666c0-0.737,0.597-1.333,1.333-1.333s1.333,0.596,1.333,1.333V-296
		c0,0.737-0.597,1.333-1.333,1.333s-1.333-0.597-1.333-1.333V-322.666z M320.333-297.333H315c-0.737,0-1.333-0.596-1.333-1.333
		c0-0.737,0.597-1.333,1.333-1.333h5.333c0.737,0,1.333,0.596,1.333,1.333C321.667-297.929,321.07-297.333,320.333-297.333z"></path> 
</g> 
 <g> <circle fill="#414042" cx="429.667" cy="-282.666" r="1.333"></circle> 
 <path fill="#414042" d="M429.667-292c-5.146,0-9.333,4.188-9.333,9.333c0,5.146,4.188,9.333,9.333,9.333
		c5.146,0,9.333-4.188,9.333-9.333C439-287.812,434.813-292,429.667-292z M429.667-278.666c-2.206,0-4-1.794-4-4
		c0-2.206,1.794-4,4-4c2.206,0,4,1.794,4,4C433.667-280.46,431.873-278.666,429.667-278.666z"></path> 
 <circle fill="#414042" cx="456.333" cy="-282.666" r="1.333"></circle> 
 <path fill="#414042" d="M456.333-292c-5.146,0-9.333,4.188-9.333,9.333c0,5.146,4.188,9.333,9.333,9.333
		c5.146,0,9.333-4.188,9.333-9.333C465.667-287.812,461.479-292,456.333-292z M456.333-278.666c-2.206,0-4-1.794-4-4
		c0-2.206,1.794-4,4-4c2.206,0,4,1.794,4,4C460.333-280.46,458.539-278.666,456.333-278.666z"></path> 
 <circle fill="#414042" cx="483" cy="-282.666" r="1.333"></circle> 
 <path fill="#414042" d="M483-292c-5.146,0-9.333,4.188-9.333,9.333c0,5.146,4.188,9.333,9.333,9.333s9.333-4.188,9.333-9.333
		C492.333-287.812,488.146-292,483-292z M483-278.666c-2.206,0-4-1.794-4-4c0-2.206,1.794-4,4-4s4,1.794,4,4
		C487-280.46,485.206-278.666,483-278.666z"></path> 
 <rect x="492.333" y="-297.333" fill="#414042" width="5.333" height="2.667"></rect> 
 <path fill="#414042" d="M496.333-308h-5.844l-2.673-5.333h-11.483V-308H483c0.737,0,1.333,0.596,1.333,1.333
		c0,0.737-0.597,1.333-1.333,1.333h-8c-0.737,0-1.333-0.596-1.333-1.333v-8c0-0.737,0.597-1.333,1.333-1.333h11.479l-0.82-1.637
		c-1.141-2.28-3.426-3.697-5.966-3.697h-10.026c-0.737,0-1.333,0.597-1.333,1.333v22.667h-54.667c-0.737,0-1.333,0.597-1.333,1.333
		v10.667c0,0.737,0.596,1.333,1.333,1.333h4.134c0.674-5.983,5.706-10.667,11.866-10.667c5.698,0,10.458,4,11.679,9.333l0.321,1.333
		h2.667l0.321-1.333c1.22-5.333,5.98-9.333,11.679-9.333c6.16,0,11.191,4.684,11.866,10.667h1.467h1.468
		c0.674-5.983,5.706-10.667,11.866-10.667s11.191,4.684,11.866,10.667h1.468c0.737,0,1.333-0.596,1.333-1.333V-292H491
		c-0.737,0-1.333-0.596-1.333-1.333v-5.333c0-0.737,0.597-1.333,1.333-1.333h6.667v-6.667C497.667-307.403,497.07-308,496.333-308z
		 M480.333-300H475c-0.737,0-1.333-0.596-1.333-1.333c0-0.737,0.597-1.333,1.333-1.333h5.333c0.737,0,1.333,0.596,1.333,1.333
		C481.667-300.596,481.07-300,480.333-300z"></path> 
 <path fill="#414042" d="M436.333-308H439v8h18.667v-9.333c0-0.737-0.596-1.333-1.333-1.333H447v-14.667
		c0-0.737-0.596-1.333-1.333-1.333h-16c-0.737,0-1.333,0.596-1.333,1.333v14.667H419c-0.737,0-1.333,0.596-1.333,1.333V-300h18.667
		V-308z"></path> 
</g> 
 <g> <circle fill="#414042" cx="589.667" cy="-277.333" r="1.333"></circle> 
 <path fill="#414042" d="M589.667-286.666c-5.146,0-9.333,4.188-9.333,9.333c0,5.146,4.188,9.333,9.333,9.333
		c5.146,0,9.333-4.188,9.333-9.333C599-282.479,594.813-286.666,589.667-286.666z M589.667-273.333c-2.206,0-4-1.794-4-4
		c0-2.206,1.794-4,4-4c2.206,0,4,1.794,4,4C593.667-275.127,591.873-273.333,589.667-273.333z"></path> 
 <circle fill="#414042" cx="616.333" cy="-277.333" r="1.333"></circle> 
 <path fill="#414042" d="M616.333-286.666c-5.146,0-9.333,4.188-9.333,9.333c0,5.146,4.188,9.333,9.333,9.333
		c5.146,0,9.334-4.188,9.334-9.333C625.667-282.479,621.479-286.666,616.333-286.666z M616.333-273.333c-2.206,0-4-1.794-4-4
		c0-2.206,1.794-4,4-4c2.206,0,4,1.794,4,4C620.333-275.127,618.539-273.333,616.333-273.333z"></path> 
 <circle fill="#414042" cx="643" cy="-277.333" r="1.333"></circle> 
 <path fill="#414042" d="M643-286.666c-5.146,0-9.333,4.188-9.333,9.333c0,5.146,4.188,9.333,9.333,9.333s9.333-4.188,9.333-9.333
		C652.333-282.479,648.146-286.666,643-286.666z M643-273.333c-2.206,0-4-1.794-4-4c0-2.206,1.794-4,4-4s4,1.794,4,4
		C647-275.127,645.206-273.333,643-273.333z"></path> 
 <rect x="652.333" y="-292" fill="#414042" width="5.334" height="2.667"></rect> 
 <path fill="#414042" d="M656.333-302.666h-5.844L647.815-308h-11.482v5.333H643c0.737,0,1.333,0.596,1.333,1.333
		c0,0.737-0.596,1.333-1.333,1.333h-8c-0.737,0-1.333-0.596-1.333-1.333v-8c0-0.737,0.596-1.333,1.333-1.333h11.479l-0.82-1.637
		c-1.141-2.28-3.428-3.697-5.967-3.697h-10.025c-0.737,0-1.334,0.596-1.334,1.333V-292h-54.667c-0.737,0-1.333,0.596-1.333,1.333
		V-280c0,0.737,0.596,1.333,1.333,1.333h4.134c0.674-5.983,5.706-10.667,11.866-10.667s11.191,4.684,11.866,10.667h2.935
		c0.675-5.983,5.706-10.667,11.866-10.667c6.162,0,11.193,4.684,11.865,10.667h1.469h1.469c0.672-5.983,5.703-10.667,11.864-10.667
		s11.192,4.684,11.864,10.667h1.469c0.737,0,1.334-0.597,1.334-1.333v-6.667H651c-0.737,0-1.333-0.597-1.333-1.333v-5.333
		c0-0.737,0.596-1.333,1.333-1.333h6.667v-6.667C657.667-302.07,657.07-302.666,656.333-302.666z M640.333-294.666H635
		c-0.737,0-1.333-0.597-1.333-1.333s0.596-1.333,1.333-1.333h5.333c0.737,0,1.334,0.597,1.334,1.333S641.07-294.666,640.333-294.666
		z"></path> 
 <path fill="#414042" d="M604.333-304c0-0.737-0.597-1.333-1.333-1.333h-2.043l-5.031-6.038c1.049-0.721,1.741-1.928,1.741-3.295
		c0-1.738-1.114-3.222-2.667-3.772v-3.083c1.012-0.265,1.902-0.81,2.588-1.56l14.866,7.871c-0.074,0.167-0.121,0.349-0.121,0.544
		v17.333H611c-0.737,0-1.333,0.597-1.333,1.333v1.333H623V-296c0-0.737-0.597-1.333-1.333-1.333h-1.334v-17.333
		c0-0.737-0.596-1.333-1.333-1.333h-2.335l-17.823-9.436c0.095-0.396,0.158-0.805,0.158-1.23c0-2.941-2.393-5.333-5.333-5.333
		c-2.94,0-5.333,2.392-5.333,5.333c0,2.478,1.707,4.548,4,5.145v4.188c0,0.737,0.596,1.333,1.333,1.333
		c0.734,0,1.333,0.598,1.333,1.333c0,0.735-0.599,1.333-1.333,1.333s-1.333-0.598-1.333-1.333c0-0.737-0.597-1.333-1.333-1.333
		s-1.333,0.596-1.333,1.333c0,1.367,0.691,2.574,1.741,3.295l-5.031,6.038h-2.043c-0.737,0-1.333,0.597-1.333,1.333v9.333h21.333
		V-304z M595-324.41v-0.042l0.035,0.018C595.023-324.425,595.012-324.416,595-324.41z M594.292-327.845
		c-0.419-0.219-0.914-0.207-1.313,0.037c-0.401,0.241-0.646,0.674-0.646,1.142v2.256c-0.783-0.465-1.333-1.283-1.333-2.256
		c0-1.47,1.195-2.667,2.667-2.667c1.433,0,2.583,1.141,2.645,2.558L594.292-327.845z M589.846-305.333l3.82-4.583l3.82,4.583
		H589.846z"></path> 
</g> 
 <g> <circle fill="#414042" cx="752.333" cy="-277.391" r="1.333"></circle> 
 <path fill="#414042" d="M752.333-286.725c-5.146,0-9.333,4.188-9.333,9.333c0,5.146,4.188,9.333,9.333,9.333
		c5.146,0,9.334-4.188,9.334-9.333C761.667-282.537,757.479-286.725,752.333-286.725z M752.333-273.392c-2.205,0-4-1.794-4-4
		c0-2.206,1.795-4,4-4c2.206,0,4,1.794,4,4C756.333-275.186,754.539-273.392,752.333-273.392z"></path> 
 <circle fill="#414042" cx="776.333" cy="-277.391" r="1.333"></circle> 
 <path fill="#414042" d="M776.333-286.725c-5.146,0-9.333,4.188-9.333,9.333c0,5.146,4.188,9.333,9.333,9.333
		c5.146,0,9.334-4.188,9.334-9.333C785.667-282.537,781.479-286.725,776.333-286.725z M776.333-273.392c-2.205,0-4-1.794-4-4
		c0-2.206,1.795-4,4-4c2.206,0,4,1.794,4,4C780.333-275.186,778.539-273.392,776.333-273.392z"></path> 
 <circle fill="#414042" cx="803" cy="-277.391" r="1.333"></circle> 
 <path fill="#414042" d="M803-286.725c-5.146,0-9.333,4.188-9.333,9.333c0,5.146,4.188,9.333,9.333,9.333s9.333-4.188,9.333-9.333
		C812.333-282.537,808.146-286.725,803-286.725z M803-273.392c-2.206,0-4-1.794-4-4c0-2.206,1.794-4,4-4s4,1.794,4,4
		C807-275.186,805.206-273.392,803-273.392z"></path> 
 <polygon fill="#414042" points="812.333,-289.384 817.667,-289.35 817.667,-292.017 812.333,-292.05 	"></polygon> 
 <path fill="#414042" d="M813.667-300.058h-3.112l-3.323-7.955l-10.898-0.04v7.995H803c0.737,0,1.333,0.596,1.333,1.333
		c0,0.737-0.596,1.333-1.333,1.333h-8c-0.737,0-1.333-0.596-1.333-1.333v-10.667c0-0.354,0.141-0.694,0.393-0.944
		c0.253-0.252,0.6-0.462,0.945-0.389l11.112,0.04l-1.219-2.915c-0.625-1.494-2.073-2.458-3.692-2.458h-11.539
		c-0.737,0-1.334,0.596-1.334,1.333v22.667H775v-7.037l8.856-2.397c0.709-0.191,1.131-0.922,0.94-1.631l-5.44-20.304l0.967-4.727
		l4.356-1.167c0.711-0.19,1.133-0.922,0.942-1.633c-0.192-0.712-0.916-1.135-1.635-0.943l-5.151,1.38
		c-0.487,0.13-0.859,0.526-0.961,1.021l-1.031,5.038l-43.737,11.838c-0.708,0.191-1.13,0.922-0.939,1.632l5.5,20.528v10.4
		c0,0.737,0.596,1.333,1.333,1.333h1.469c0.672-5.983,5.703-10.667,11.864-10.667c5.698,0,10.459,4,11.678,9.333h0.646
		c1.219-5.333,5.979-9.333,11.677-9.333c6.162,0,11.193,4.684,11.865,10.667h1.469h1.469c0.672-5.983,5.703-10.667,11.864-10.667
		s11.192,4.684,11.864,10.667h1.469c0.737,0,1.334-0.597,1.334-1.333v-6.625l-6.675-0.042c-0.734-0.005-1.325-0.601-1.325-1.333
		v-5.333c0-0.355,0.141-0.695,0.393-0.945c0.253-0.251,0.537-0.346,0.948-0.388l6.659,0.042v-1.375
		C817.667-298.264,815.872-300.058,813.667-300.058z M770.737-317.35c0.705-0.189,1.439,0.23,1.633,0.942l2.76,10.304
		c0.19,0.711-0.231,1.442-0.945,1.633c-0.114,0.031-0.229,0.045-0.344,0.045c-0.588,0-1.127-0.392-1.289-0.988l-2.76-10.303
		C769.602-316.428,770.023-317.16,770.737-317.35z M765.403-315.75c0.703-0.19,1.44,0.23,1.633,0.943l2.761,10.303
		c0.19,0.711-0.231,1.443-0.945,1.633c-0.114,0.031-0.229,0.045-0.344,0.045c-0.589,0-1.128-0.392-1.289-0.988l-2.761-10.303
		C764.269-314.828,764.69-315.56,765.403-315.75z M760.25-314.369c0.703-0.189,1.44,0.23,1.633,0.942l2.761,10.304
		c0.189,0.711-0.232,1.442-0.945,1.633c-0.115,0.031-0.229,0.045-0.344,0.045c-0.589,0-1.128-0.392-1.289-0.988l-2.761-10.303
		C759.114-313.447,759.536-314.179,760.25-314.369z M755.099-312.989c0.709-0.186,1.44,0.232,1.633,0.943l2.761,10.303
		c0.19,0.711-0.231,1.443-0.945,1.633c-0.114,0.031-0.229,0.046-0.344,0.046c-0.589,0-1.128-0.392-1.289-0.988l-2.761-10.304
		C753.964-312.067,754.386-312.799,755.099-312.989z M749.948-311.609c0.705-0.193,1.439,0.23,1.633,0.943l2.76,10.303
		c0.19,0.711-0.231,1.443-0.945,1.633c-0.114,0.031-0.229,0.045-0.344,0.045c-0.588,0-1.127-0.392-1.289-0.988l-2.76-10.303
		C748.813-310.687,749.234-311.419,749.948-311.609z M744.797-310.229c0.703-0.19,1.44,0.23,1.633,0.942l2.761,10.304
		c0.189,0.711-0.232,1.442-0.945,1.633c-0.115,0.031-0.229,0.045-0.344,0.045c-0.589,0-1.128-0.392-1.289-0.988l-2.761-10.303
		C743.661-309.307,744.083-310.039,744.797-310.229z M739.641-308.849c0.722-0.188,1.442,0.232,1.636,0.943l2.763,10.303
		c0.19,0.711-0.231,1.443-0.942,1.633c-0.117,0.031-0.232,0.046-0.347,0.046c-0.589,0-1.128-0.392-1.289-0.988l-2.763-10.304
		C738.508-307.927,738.93-308.658,739.641-308.849z M749.005-292.058l23.328-6.315v6.315H749.005z M800.333-292.058H795
		c-0.737,0-1.333-0.596-1.333-1.333c0-0.737,0.596-1.333,1.333-1.333h5.333c0.737,0,1.334,0.596,1.334,1.333
		C801.667-292.654,801.07-292.058,800.333-292.058z"></path> 
</g> 
 <g> <path fill="#414042" d="M912.333-284c-5.146,0-9.333,4.188-9.333,9.333c0,5.146,4.188,9.333,9.333,9.333
		c5.146,0,9.334-4.188,9.334-9.333C921.667-279.812,917.479-284,912.333-284z M912.333-270.666c-2.205,0-4-1.794-4-4
		c0-2.206,1.795-4,4-4c2.206,0,4,1.794,4,4C916.333-272.46,914.539-270.666,912.333-270.666z"></path> 
 <circle fill="#414042" cx="912.333" cy="-274.666" r="1.333"></circle> 
 <circle fill="#414042" cx="936.333" cy="-274.666" r="1.333"></circle> 
 <path fill="#414042" d="M936.333-284c-5.146,0-9.333,4.188-9.333,9.333c0,5.146,4.188,9.333,9.333,9.333
		c5.146,0,9.334-4.188,9.334-9.333C945.667-279.812,941.479-284,936.333-284z M936.333-270.666c-2.205,0-4-1.794-4-4
		c0-2.206,1.795-4,4-4c2.206,0,4,1.794,4,4C940.333-272.46,938.539-270.666,936.333-270.666z"></path> 
 <circle fill="#414042" cx="963" cy="-274.666" r="1.333"></circle> 
 <path fill="#414042" d="M963-284c-5.146,0-9.333,4.188-9.333,9.333c0,5.146,4.188,9.333,9.333,9.333s9.333-4.188,9.333-9.333
		C972.333-279.812,968.146-284,963-284z M963-270.666c-2.206,0-4-1.794-4-4c0-2.206,1.794-4,4-4s4,1.794,4,4
		C967-272.46,965.206-270.666,963-270.666z"></path> 
 <path fill="#414042" d="M900.333-301.333c0-1.738-1.114-3.221-2.666-3.772v-1.246l2.525-5.052c0.206-0.413,0.186-0.903-0.057-1.297
		c-0.245-0.393-0.675-0.633-1.136-0.633h-1.333v-10.913c1.549-0.552,2.666-2.018,2.666-3.754c0-2.206-1.794-4-4-4
		c-2.205,0-4,1.794-4,4c0,1.736,1.117,3.202,2.667,3.754v10.913h-1.333c-0.461,0-0.891,0.24-1.136,0.633
		c-0.242,0.394-0.263,0.884-0.058,1.297l2.526,5.052V-304c0,0.737,0.597,1.333,1.333,1.333c0.734,0,1.334,0.598,1.334,1.333
		c0,0.736-0.6,1.333-1.334,1.333S895-300.597,895-301.333c0-0.737-0.597-1.333-1.333-1.333c-0.737,0-1.334,0.596-1.334,1.333
		c0,2.206,1.795,4,4,4C898.539-297.333,900.333-299.127,900.333-301.333z"></path> 
 <rect x="972.333" y="-289.333" fill="#414042" width="5.334" height="2.667"></rect> 
 <path fill="#414042" d="M976.333-300h-5.844l-2.674-5.333h-11.482V-300H963c0.737,0,1.333,0.596,1.333,1.333
		c0,0.737-0.596,1.333-1.333,1.333h-8c-0.737,0-1.333-0.596-1.333-1.333v-8c0-0.737,0.596-1.333,1.333-1.333h11.479l-0.82-1.637
		c-1.141-2.28-3.428-3.697-5.967-3.697h-10.025c-0.737,0-1.334,0.597-1.334,1.333v22.667H899c-0.737,0-1.333,0.597-1.333,1.333
		v10.667c0,0.737,0.596,1.333,1.333,1.333h1.469c0.672-5.983,5.703-10.667,11.864-10.667c6.162,0,11.193,4.684,11.865,10.667h0.271
		c0.672-5.983,5.703-10.667,11.864-10.667c6.162,0,11.193,4.684,11.865,10.667h1.469h1.469c0.672-5.983,5.703-10.667,11.864-10.667
		s11.192,4.684,11.864,10.667h1.469c0.737,0,1.334-0.596,1.334-1.333V-284H971c-0.737,0-1.333-0.596-1.333-1.333v-5.333
		c0-0.737,0.596-1.333,1.333-1.333h6.667v-6.667C977.667-299.403,977.07-300,976.333-300z M960.333-292H955
		c-0.737,0-1.333-0.596-1.333-1.333c0-0.737,0.596-1.333,1.333-1.333h5.333c0.737,0,1.334,0.596,1.334,1.333
		C961.667-292.596,961.07-292,960.333-292z"></path> 
 <path fill="#414042" d="M902.917-328.832l27.302,16.798c-0.664,0.567-1.19,1.282-1.513,2.109l-26.097-15.917
		c-0.297,0.859-0.755,1.637-1.354,2.298l27.183,16.58c0.185,0.932,0.628,1.764,1.229,2.453v7.177h-4
		c-0.737,0-1.334,0.597-1.334,1.333v4H943v-4c0-0.737-0.597-1.333-1.333-1.333h-4v-7.177c0.82-0.938,1.333-2.148,1.333-3.49
		c0-2.941-2.394-5.333-5.333-5.333c-0.139,0-0.269,0.031-0.406,0.042l-34.417-21.177c-0.356-0.219-0.781-0.208-1.164-0.061
		C900.445-333.959,902.558-331.666,902.917-328.832z"></path> 
</g> 
 <g> <path fill="#414042" d="M974.734-163.466l-4-5.333c-0.253-0.336-0.648-0.534-1.067-0.534h-19.805l-26.479-7.944
		c-0.06-0.018-0.12-0.005-0.18-0.016c-0.07-0.01-0.13-0.041-0.203-0.041c-0.028,0-0.055,0.015-0.083,0.017
		c-0.084,0.005-0.162,0.027-0.245,0.049c-0.097,0.025-0.19,0.051-0.276,0.097c-0.025,0.013-0.057,0.013-0.08,0.027L911-170.354
		v-0.313c0-0.737-0.597-1.333-1.333-1.333h-8c-0.737,0-1.334,0.596-1.334,1.333v1.333h-4c-0.736,0-1.333,0.597-1.333,1.333v5.333
		c0,0.737,0.597,1.333,1.333,1.333h4V-160c0,0.737,0.597,1.333,1.334,1.333h8c0.736,0,1.333-0.597,1.333-1.333v-1.333h10.667v2.667
		c-0.737,0-1.334,0.596-1.334,1.333v10.667c0,0.737,0.597,1.333,1.334,1.333H931c0.737,0,1.333-0.596,1.333-1.333v-7.999
		c0-0.353-0.141-0.692-0.391-0.942l-2.666-2.668c-0.25-0.25-0.589-0.391-0.943-0.391h-4v-2.667h41.334v13.522
		c-2.295,0.596-4,2.667-4,5.145c0,2.941,2.393,5.333,5.333,5.333s5.333-2.392,5.333-5.333c0-2.478-1.705-4.548-4-5.145v-13.522
		h5.334c0.505,0,0.966-0.285,1.192-0.737S975.036-163.062,974.734-163.466z M900.333-164h-2.666v-2.667h2.666V-164z
		 M921.667-173.644v4.311h-7.188L921.667-173.644z M911-164v-2.667h10.667V-164H911z M924.333-174.208l16.248,4.875h-16.248
		V-174.208z M924.333-164v-2.667H969l2,2.667H924.333z"></path> 
 <path fill="#414042" d="M931-110.666h-1.333v-32h-8v32h-1.334c-0.736,0-1.333,0.596-1.333,1.333V-104
		c0,0.737,0.597,1.333,1.333,1.333H931c0.737,0,1.333-0.597,1.333-1.333v-5.333C932.333-110.07,931.737-110.666,931-110.666z"></path> 
</g> 
 <g> <circle fill="#FFFFFF" cx="18.7" cy="45.101" r="1.1"></circle> 
 <circle fill="#FFFFFF" cx="7.699" cy="45.101" r="1.1"></circle> 
 <circle fill="#FFFFFF" cx="29.7" cy="45.101" r="1.1"></circle> 
 <circle fill="#FFFFFF" cx="40.7" cy="45.101" r="1.1"></circle> 
 <path fill="#FFFFFF" d="M40.7,37.4h-9.9v-2.2h3.3c0.608,0,1.101-0.491,1.101-1.099V18.7c0-0.117-0.019-0.235-0.057-0.348L31.96,8.8
		H8.801v25.301c0,0.607,0.491,1.099,1.1,1.099H13.2v2.2h-5.5C3.455,37.4,0,40.855,0,45.1s3.455,7.701,7.699,7.701H40.7
		c4.246,0,7.7-3.456,7.7-7.701S44.946,37.4,40.7,37.4z M15.4,11h11.241l1.959,7.834v7.566h-8.8V23.1
		c0-0.417-0.236-0.797-0.609-0.984L15.4,20.22V11z M7.699,48.399c-1.818,0-3.3-1.479-3.3-3.299s1.481-3.3,3.3-3.3
		c1.821,0,3.3,1.48,3.3,3.3S9.52,48.399,7.699,48.399z M18.7,48.399c-1.82,0-3.3-1.479-3.3-3.299s1.479-3.3,3.3-3.3
		c1.819,0,3.3,1.48,3.3,3.3S20.52,48.399,18.7,48.399z M29.7,48.399c-1.82,0-3.299-1.479-3.299-3.299s1.479-3.3,3.299-3.3
		c1.821,0,3.3,1.48,3.3,3.3S31.521,48.399,29.7,48.399z M40.7,48.399c-1.819,0-3.3-1.479-3.3-3.299s1.48-3.3,3.3-3.3
		c1.82,0,3.3,1.48,3.3,3.3S42.52,48.399,40.7,48.399z"></path> 
 <path fill="#FFFFFF" d="M7.699,6.6H31.9C32.508,6.6,33,6.108,33,5.5V1.1C33,0.492,32.508,0,31.9,0H7.699C7.093,0,6.6,0.492,6.6,1.1
		V5.5C6.6,6.108,7.093,6.6,7.699,6.6z"></path> 
 <path fill="#FFFFFF" d="M65.167,2.233l-8.799-2.199c-0.048-0.013-0.091,0.008-0.139,0.003c-0.122-0.016-0.238-0.019-0.358,0.007
		c-0.071,0.015-0.132,0.042-0.198,0.072c-0.058,0.024-0.121,0.027-0.172,0.062L35.697,13.05l1.534,4.605
		c0.116,0.353,0.17,0.698,0.17,1.044v15.401c0,0.854-0.335,1.627-0.872,2.215l2.464-1.232c0.372-0.188,0.607-0.566,0.607-0.982
		V19.318L57.385,8.437l5.988,17.964H60.5c-0.169,0-0.34,0.039-0.491,0.115L55.841,28.6H49.5c-0.406,0-0.777,0.225-0.969,0.581
		c-0.193,0.358-0.172,0.792,0.053,1.13l4.4,6.6c0.205,0.306,0.548,0.489,0.916,0.489H62.7c0.505,0,0.946-0.345,1.069-0.834
		l2.199-8.799c0.009-0.032-0.004-0.064,0.003-0.099C65.979,27.612,66,27.559,66,27.5V3.3C66,2.795,65.656,2.355,65.167,2.233z"></path> 
</g> 
 <g> <circle fill="#414042" cx="608.333" cy="-112" r="1.333"></circle> 
 <circle fill="#414042" cx="581.667" cy="-112" r="1.333"></circle> 
 <circle fill="#414042" cx="595" cy="-112" r="1.333"></circle> 
 <circle fill="#414042" cx="621.667" cy="-112" r="1.333"></circle> 
 <path fill="#414042" d="M622.997-121.199l-0.023-17.729L621.159-148h-27.493v16H591v-4c0-0.737-0.596-1.333-1.333-1.333h-4v-4
		c0-0.737-0.596-1.333-1.333-1.333h-2.667c-0.737,0-1.333,0.596-1.333,1.333c0,0.737,0.596,1.333,1.333,1.333H583v2.667h-1.333
		c-0.737,0-1.333,0.597-1.333,1.333v4H579c-0.354,0-0.693,0.141-0.943,0.391l-2.667,2.667c-0.25,0.25-0.391,0.589-0.391,0.943v9.488
		c-1.645,1.684-2.667,3.978-2.667,6.512c0,5.146,4.188,9.333,9.333,9.333h40c5.146,0,9.333-4.188,9.333-9.333
		C631-116.689,627.511-120.545,622.997-121.199z M601.667-145.333h11.039L615-138.45v11.784h-8v-4c0-0.737-0.596-1.333-1.333-1.333
		h-4V-145.333z M581.667-108c-2.206,0-4-1.794-4-4s1.794-4,4-4c2.206,0,4,1.794,4,4S583.873-108,581.667-108z M595-108
		c-2.206,0-4-1.794-4-4s1.794-4,4-4s4,1.794,4,4S597.206-108,595-108z M608.333-108c-2.206,0-4-1.794-4-4s1.794-4,4-4
		c2.206,0,4,1.794,4,4S610.539-108,608.333-108z M621.667-108c-2.206,0-4-1.794-4-4s1.794-4,4-4c2.205,0,4,1.794,4,4
		S623.872-108,621.667-108z"></path> 
 <path fill="#414042" d="M592.333-150.666h29.333c0.736,0,1.333-0.597,1.333-1.333v-5.333c0-0.737-0.597-1.333-1.333-1.333h-29.333
		c-0.737,0-1.333,0.596-1.333,1.333V-152C591-151.263,591.596-150.666,592.333-150.666z"></path> 
 <path fill="#414042" d="M657.606-162.958c0.029-5.896-3.203-11.497-8.677-14.234c-0.401-0.2-0.883-0.185-1.269,0.042
		c-0.391,0.227-0.638,0.634-0.658,1.084L646.8-172h-30.467c-0.406,0-0.789,0.184-1.042,0.5l-8.133,10.167h13.443L622.38-164h24.019
		l-2.063,41.267c-0.003,0.045,0.016,0.087,0.019,0.131c0.002,0.066-0.008,0.13,0.005,0.197l0.917,4.577
		c0.955,4.788-1.053,9.63-5.112,12.338l-0.57,0.38c-0.489,0.326-0.706,0.934-0.536,1.496c0.169,0.563,0.688,0.947,1.275,0.947H651
		c0.354,0,0.692-0.141,0.942-0.391l5.331-5.332c0.013-0.012,0.019-0.03,0.031-0.043c0.106-0.115,0.195-0.238,0.253-0.375
		c0.013-0.029,0.01-0.062,0.021-0.091c0.047-0.131,0.078-0.266,0.083-0.402c0-0.012,0.006-0.021,0.006-0.033v-53.333
		C657.667-162.769,657.63-162.861,657.606-162.958z M655-113.135l-7.867-9.833l1.823-6.559l6.044,4.836V-113.135z M655-128.107
		l-4.5-3.601c-0.255-0.202-0.563-0.278-0.864-0.272L655-151.29V-128.107z"></path> 
</g> 
 <g> <circle fill="#414042" cx="435" cy="-120" r="1.333"></circle> 
 <circle fill="#414042" cx="448.333" cy="-120" r="1.333"></circle> 
 <circle fill="#414042" cx="421.667" cy="-120" r="1.333"></circle> 
 <circle fill="#414042" cx="461.667" cy="-120" r="1.333"></circle> 
 <path fill="#414042" d="M496.716-113.277l-1.559-0.467c-6.801-2.039-11.982-7.613-13.522-14.544
		c-0.147-0.664-0.754-1.108-1.448-1.037C479.512-129.251,479-128.679,479-128v6.667h-8.134c-0.591-4.071-3.794-7.274-7.866-7.866
		V-144c0-0.635-0.449-1.182-1.072-1.307l-4.262-0.852v-10.623l2.276-2.276c0.521-0.521,0.521-1.365,0-1.886
		c-0.521-0.521-1.365-0.521-1.886,0l-2.667,2.667c-0.25,0.25-0.391,0.588-0.391,0.942v10.641l-5.333-1.066v-10.907H423v16h-4
		c-0.354,0-0.693,0.141-0.943,0.391l-2.667,2.667c-0.25,0.25-0.391,0.588-0.391,0.943v12.155c-1.645,1.684-2.667,3.978-2.667,6.512
		c0,5.146,4.188,9.333,9.333,9.333h40c4.689,0,8.544-3.488,9.199-8H479v1.333c0,3.676,2.991,6.667,6.667,6.667h10.667
		c0.661,0,1.223-0.486,1.319-1.14C497.749-112.46,497.35-113.087,496.716-113.277z M431-156h10.667v12
		c0,0.354,0.141,0.693,0.391,0.943l2.276,2.276v3.448h-8v-4c0-0.737-0.597-1.333-1.333-1.333h-4V-156z M421.667-116
		c-2.206,0-4-1.794-4-4s1.794-4,4-4c2.206,0,4,1.794,4,4S423.873-116,421.667-116z M435-116c-2.206,0-4-1.794-4-4s1.794-4,4-4
		s4,1.794,4,4S437.206-116,435-116z M448.333-116c-2.206,0-4-1.794-4-4s1.794-4,4-4c2.206,0,4,1.794,4,4S450.539-116,448.333-116z
		 M461.667-116c-2.206,0-4-1.794-4-4s1.794-4,4-4c2.206,0,4,1.794,4,4S463.873-116,461.667-116z"></path> 
 <path fill="#414042" d="M421.667-161.333H451c0.737,0,1.333-0.596,1.333-1.333V-168c0-0.737-0.597-1.333-1.333-1.333h-29.333
		c-0.737,0-1.333,0.597-1.333,1.333v5.333C420.333-161.929,420.93-161.333,421.667-161.333z"></path> 
</g> 
</svg>