<svg xmlns="http://www.w3.org/2000/svg" viewBox="0 0 100 100" id="1830610695" class="svg u_1830610695" data-icon-name="li-message"> <g id="1856955135"> <path d="M75.4,23.9H24.6c-2.7,0-4.9,2.2-4.9,4.9v31.3c0,2.7,2.2,4.9,4.9,4.9h34.8l11.2,11.2V65h4.9c2.7,0,4.9-2.2,4.9-4.9V28.8
		C80.3,26.1,78.1,23.9,75.4,23.9z M78.4,60.1c0,1.6-1.3,2.9-2.9,2.9h-6.8v8.4L60.2,63H24.6c-1.6,0-2.9-1.3-2.9-2.9V28.8
		c0-1.6,1.3-2.9,2.9-2.9h50.9c1.6,0,2.9,1.3,2.9,2.9V60.1z" id="1598447490"></path> 
 <rect x="35.3" y="43.4" width="29.3" height="2" id="1983409728"></rect> 
 <rect x="35.3" y="33.7" width="29.3" height="2" id="1407239196"></rect> 
 <rect x="35.3" y="53.2" width="19.6" height="2" id="1762718789"></rect> 
</g> 
</svg>